<?xml version="1.0" encoding="UTF-8"?> <svg xmlns="http://www.w3.org/2000/svg" width="352" height="352" fill="none"><g><title>Layer 1</title><path id="svg_9" fill="#7A7AB8" d="m319.48148,56c0,79.529 -64.471,144 -144,144c-79.529,0 -144,-64.471 -144,-144c0,-30.9279 25.0721,-56 56,-56c30.9279,0 56,25.0721 56,56l0,107.362c20.752,6.176 43.248,6.176 64,0l0,-107.362c0,-30.9279 25.072,-56 56,-56c30.928,0 56,25.0721 56,56zm-232,-24c13.2548,0 24,10.7452 24,24l0,91.925c-29.0157,-20.239 -48,-53.8651 -48,-91.925c0,-13.2548 10.7452,-24 24,-24zm152,24l0,91.925c29.016,-20.239 48,-53.8651 48,-91.925c0,-13.2548 -10.745,-24 -24,-24c-13.255,0 -24,10.7452 -24,24z" clip-rule="evenodd" fill-rule="evenodd"></path><path id="svg_10" fill="#7A7AB8" d="m239.48148,296l0,-75.998c-40.79,15.932 -87.243,15.92 -128,0l0,75.998c0,13.255 -10.7452,24 -24,24c-13.2548,0 -24,-10.745 -24,-24l0,-104.229c-12.1418,-10.028 -22.91568,-21.652 -32,-34.552l0,138.781c0,30.928 25.0721,56 56,56c30.9279,0 56,-25.072 56,-56l0,-34.446c21.162,3.267 42.838,3.267 64,0l0,34.446c0,30.928 25.072,56 56,56c30.928,0 56,-25.072 56,-56l0,-138.781c-9.084,12.9 -19.858,24.524 -32,34.552l0,104.229c0,13.255 -10.745,24 -24,24c-13.255,0 -24,-10.745 -24,-24z"></path></g></svg> 